<svg width="65" height="65" viewBox="0 0 65 65" fill="none" xmlns="http://www.w3.org/2000/svg">
<path d="M61.3252 32.04H56.2237V23.4487C56.2237 22.9214 55.7958 22.4935 55.2685 22.4935H39.3545V13.9251C39.3545 13.3978 38.9265 12.9699 38.3992 12.9699H3.27884C2.75155 12.9699 2.32361 13.3978 2.32361 13.9251V46.0875C2.32361 46.6148 2.75155 47.0427 3.27884 47.0427H11.4969C11.8255 49.5715 13.9888 51.5336 16.6061 51.5336C19.2196 51.5336 21.3803 49.5722 21.7083 47.0427H38.3999H44.7591C45.0871 49.5715 47.2484 51.5336 49.8632 51.5336C52.4805 51.5336 54.6431 49.5722 54.9717 47.0427H61.3259C61.8532 47.0427 62.2811 46.6148 62.2811 46.0875V32.9946C62.2805 32.4673 61.8525 32.04 61.3252 32.04ZM16.6055 49.6231C14.8148 49.6231 13.3584 48.1667 13.3584 46.3766C13.3584 44.5859 14.8148 43.1295 16.6055 43.1295C18.3918 43.1295 19.845 44.5859 19.845 46.3766C19.845 48.1667 18.3918 49.6231 16.6055 49.6231ZM16.6055 41.2197C14.1913 41.2197 12.165 42.8888 11.6065 45.1329H4.23406V14.8804H37.444V23.4481V32.9946V45.1323H21.5975C21.0396 42.8888 19.0158 41.2197 16.6055 41.2197ZM49.8626 49.6231C48.075 49.6231 46.6205 48.1667 46.6205 46.3766C46.6205 44.5859 48.075 43.1295 49.8626 43.1295C51.6526 43.1295 53.109 44.5859 53.109 46.3766C53.1084 48.1667 51.652 49.6231 49.8626 49.6231ZM60.37 45.1323H54.8609C54.3018 42.8888 52.2761 41.2191 49.8626 41.2191C47.4509 41.2191 45.4265 42.8882 44.868 45.1323H39.3545V32.9946V24.4033H54.3133V32.9946C54.3133 33.5219 54.7412 33.9498 55.2685 33.9498H60.37V45.1323Z" fill="#F4F4F6"/>
</svg>
