<svg width="65" height="65" viewBox="0 0 65 65" fill="none" xmlns="http://www.w3.org/2000/svg">
<path d="M56.4641 20.8716L33.0186 3.76272C32.8552 3.6423 32.6576 3.57733 32.4546 3.57733C32.2517 3.57733 32.054 3.6423 31.8906 3.76272L9.07877 20.8716C8.96072 20.9602 8.86491 21.075 8.79892 21.207C8.73292 21.3389 8.69857 21.4845 8.69857 21.632V54.5825C8.69773 54.7079 8.7217 54.8322 8.76909 54.9482C8.81649 55.0643 8.88637 55.1698 8.97471 55.2587C9.06306 55.3477 9.16812 55.4182 9.28386 55.4664C9.39959 55.5146 9.52371 55.5394 9.64906 55.5394H55.9065C56.1586 55.5394 56.4003 55.4392 56.5786 55.261C56.7568 55.0827 56.857 54.8409 56.857 54.5889V21.6384C56.8565 21.4887 56.8207 21.3412 56.7524 21.2079C56.6841 21.0747 56.5854 20.9595 56.4641 20.8716ZM47.9857 41.5988H37.8471V32.0938H47.9857V41.5988ZM35.9461 53.6384H26.4411V43.4998H35.9461V53.6384ZM37.8471 43.4998H47.9857V53.6384H37.8471V43.4998ZM47.9857 30.1928H36.8966C36.6445 30.1928 36.4027 30.293 36.2245 30.4712C36.0462 30.6495 35.9461 30.8912 35.9461 31.1433V41.5988H25.4906C25.2386 41.5988 24.9968 41.6989 24.8185 41.8772C24.6403 42.0554 24.5402 42.2972 24.5402 42.5493V53.6384H18.2035V25.7572H47.9857V30.1928ZM54.956 53.6384H49.8867V24.8067C49.8867 24.5546 49.7865 24.3128 49.6083 24.1346C49.43 23.9563 49.1883 23.8562 48.9362 23.8562H17.253C17.0009 23.8562 16.7592 23.9563 16.5809 24.1346C16.4027 24.3128 16.3025 24.5546 16.3025 24.8067V53.6384H10.5996V22.1136L32.4673 5.7144L54.956 22.1199V53.6384Z" fill="#F4F4F6"/>
</svg>
