<svg width="25" height="25" viewBox="0 0 25 25" fill="none" xmlns="http://www.w3.org/2000/svg">
<g clip-path="url(#clip0_2_515)">
<path d="M12.4609 0.356445C7.8085 0.356445 4.02344 4.14151 4.02344 8.79395C4.02344 10.3659 4.45886 11.8999 5.28292 13.2308L11.9807 24.0241C12.109 24.2308 12.335 24.3564 12.5781 24.3564C12.58 24.3564 12.5818 24.3564 12.5837 24.3564C12.8289 24.3545 13.0554 24.225 13.1813 24.0146L19.7083 13.1168C20.4869 11.814 20.8984 10.3192 20.8984 8.79395C20.8984 4.14151 17.1134 0.356445 12.4609 0.356445ZM18.5015 12.3948L12.5674 22.3027L6.47814 12.4899C5.79222 11.3821 5.42031 10.1041 5.42031 8.79395C5.42031 4.91691 8.58391 1.75332 12.4609 1.75332C16.338 1.75332 19.4969 4.91691 19.4969 8.79395C19.4969 10.0652 19.1495 11.3106 18.5015 12.3948Z" fill="#D7DCE7" fill-opacity="0.4"/>
<path d="M12.4609 4.5752C10.1347 4.5752 8.24219 6.46773 8.24219 8.79395C8.24219 11.1053 10.1039 13.0127 12.4609 13.0127C14.847 13.0127 16.6797 11.0799 16.6797 8.79395C16.6797 6.46773 14.7872 4.5752 12.4609 4.5752ZM12.4609 11.6158C10.902 11.6158 9.63906 10.3486 9.63906 8.79395C9.63906 7.24313 10.9101 5.97207 12.4609 5.97207C14.0118 5.97207 15.2781 7.24313 15.2781 8.79395C15.2781 10.326 14.0446 11.6158 12.4609 11.6158Z" fill="#D7DCE7" fill-opacity="0.4"/>
</g>
<defs>
<clipPath id="clip0_2_515">
<rect width="24" height="24" fill="white" transform="translate(0.460938 0.356445)"/>
</clipPath>
</defs>
</svg>
