<svg width="65" height="65" viewBox="0 0 65 65" fill="none" xmlns="http://www.w3.org/2000/svg">
<path d="M56.1689 29.7184C56.4807 29.2917 56.3876 28.6935 55.961 28.3817L46.0797 21.1585L46.0382 21.1273C45.5223 20.2408 45.3629 19.4468 45.6352 19.0756C45.8877 18.7306 46.6326 18.6279 47.5625 18.8052C47.6594 18.8486 47.7659 18.876 47.8781 18.8843C49.1504 18.98 50.1677 18.6018 50.7442 17.818C51.4272 16.885 51.373 15.5725 50.5924 14.1222C49.9298 12.8927 48.7895 11.6484 47.3813 10.6191C45.2965 9.09486 42.9777 8.31043 41.3259 8.56617C40.5376 8.68925 39.9069 9.04703 39.5064 9.59677C39.016 10.2626 38.9056 11.1573 39.1824 12.1459C39.1716 12.3391 39.2201 12.533 39.324 12.702C39.9088 13.649 40.1021 14.5132 39.8144 14.9054C39.5619 15.2511 38.8195 15.3518 37.8974 15.1758L27.8547 7.83531C27.65 7.68544 27.3943 7.6223 27.143 7.66248C26.8924 7.70138 26.6672 7.8385 26.518 8.04321L19.0589 18.2504C18.9817 18.3562 18.9269 18.4761 18.8982 18.6037C18.483 20.4372 18.8351 21.9213 19.8676 22.6764C20.902 23.4289 22.4109 23.3141 24.0295 22.3683C24.0308 22.3677 24.0321 22.3677 24.0333 22.3671C24.5435 22.1732 24.974 22.1496 25.187 22.3077C25.4753 22.5182 25.5639 23.1738 25.4128 23.978C25.21 25.0596 24.6041 26.3492 23.7508 27.5156C22.3688 29.4078 20.8 30.4027 19.858 30.5494C19.6648 30.5793 19.3988 30.5889 19.2298 30.4652C19.0245 30.3147 18.9173 29.9435 18.9307 29.4365C19.3376 27.596 18.9913 26.1661 17.9518 25.4053C16.8784 24.6247 15.2975 24.7758 13.6144 25.8173C13.5092 25.8823 13.4174 25.9665 13.3447 26.0666L5.97485 36.1526C5.66363 36.5793 5.75674 37.1775 6.18276 37.4894L16.3918 44.951C16.4977 45.0282 16.6182 45.083 16.7464 45.1124C18.6074 45.5288 20.0538 45.1863 20.8159 44.1436C21.5557 43.1347 21.4619 41.666 20.5678 40.0818C20.5583 40.0404 20.5461 39.9983 20.5315 39.9574C20.351 39.4664 20.335 39.0646 20.4887 38.8548C20.9384 38.2387 23.2451 38.4983 25.6972 40.2897C28.1462 42.0818 29.0913 44.1997 28.6436 44.812C28.5014 45.0052 28.1679 45.1111 27.7112 45.113C27.6794 45.1015 27.6462 45.0926 27.613 45.0849C25.7827 44.6742 24.2974 45.0275 23.5423 46.0588C22.7547 47.1423 22.9007 48.6818 23.9549 50.3948C24.02 50.5007 24.1048 50.5932 24.2055 50.6659L34.2903 58.0351C34.4605 58.1594 34.6576 58.2194 34.854 58.2194C35.1487 58.2194 35.4395 58.0835 35.627 57.8272L42.9171 47.8553C43.8029 47.3413 44.5963 47.1825 44.9649 47.4529C45.2768 47.6812 45.5848 48.6372 45.3475 49.7871C45.3246 49.863 45.3099 49.942 45.3074 50.023C45.2372 51.5747 45.852 52.3617 46.3839 52.7513C48.1479 54.0357 51.241 52.5906 53.579 49.3885C55.9227 46.1825 56.3621 42.7941 54.5981 41.5046C54.0841 41.1334 53.1804 40.7903 51.7958 41.2667C51.7295 41.2897 51.6651 41.3197 51.6045 41.3573C50.5535 42.0072 49.5095 41.907 49.1377 41.6366C48.792 41.3834 48.6894 40.6405 48.8635 39.7151L56.1689 29.7184ZM48.0082 43.1819C49.1383 44.0052 50.9738 43.9466 52.5069 43.0461C52.7914 42.9587 53.2231 42.8732 53.4725 43.0524C54.0873 43.5014 53.8264 45.8075 52.0337 48.2603C50.2448 50.708 48.1294 51.6569 47.5114 51.2067C47.3125 51.0606 47.2059 50.6978 47.2149 50.2029C47.5899 48.4293 47.1345 46.671 46.0956 45.9102C45.0261 45.127 43.4439 45.2763 41.7545 46.3222C41.6499 46.3872 41.5587 46.4714 41.486 46.5715L34.6461 55.9273L25.4912 49.2373C24.9791 48.3489 24.821 47.5549 25.0875 47.1882C25.3363 46.8477 26.0582 46.7425 26.9606 46.9064C27.076 46.9676 27.2055 47.0052 27.3433 47.0148C28.6028 47.1009 29.6149 46.722 30.187 45.9453C31.474 44.1851 30.0295 41.0907 26.826 38.7464C23.6194 36.4058 20.2311 35.9664 18.9435 37.7272C18.4486 38.4045 18.3421 39.3133 18.6342 40.312C18.6342 40.4868 18.6833 40.6609 18.777 40.8127C19.3625 41.761 19.5576 42.6258 19.2719 43.0148C19.0194 43.3598 18.277 43.4606 17.3542 43.2859L8.08389 36.5091L14.7745 27.3511C15.6591 26.8389 16.4524 26.6808 16.8236 26.9506C17.1801 27.2114 17.2764 27.9926 17.0761 28.9563C17.0474 29.0392 17.0296 29.1266 17.0245 29.2158C16.9327 30.8064 17.5576 31.6119 18.0985 32.0085C18.652 32.4135 19.3618 32.5634 20.1514 32.4397C21.8025 32.1833 23.7738 30.7286 25.2955 28.6444C26.3261 27.2356 27.0359 25.7044 27.2935 24.3313C27.5977 22.7127 27.2502 21.4455 26.3209 20.7669C25.6105 20.2408 24.6373 20.1502 23.562 20.5048C23.4345 20.5233 23.3095 20.5673 23.1953 20.6381C22.2496 21.2223 21.3854 21.4143 20.9958 21.1311C20.6501 20.8779 20.5487 20.1362 20.726 19.2134L27.4989 9.94498L36.9356 16.8422C37.0409 16.9194 37.1614 16.9742 37.289 17.0029C39.1486 17.4245 40.597 17.0795 41.3597 16.0348C42.0925 15.0349 42.0108 13.5878 41.1448 12.024C41.1346 11.966 41.1193 11.908 41.0989 11.8512C40.9126 11.3487 40.8948 10.9405 41.051 10.7275C41.1748 10.5579 41.4299 10.4871 41.6225 10.4571C42.5644 10.311 44.361 10.7811 46.2544 12.1643C47.4196 13.0157 48.3877 14.061 48.9094 15.0304C49.2978 15.7504 49.4126 16.4016 49.204 16.6866C49.0535 16.8913 48.6811 16.9959 48.2021 16.9864C48.1887 16.9825 48.174 16.9794 48.1607 16.9762C46.2972 16.561 44.8527 16.9066 44.0925 17.9475C43.308 19.0176 43.4579 20.5992 44.5044 22.2867C44.5676 22.3887 44.6492 22.4774 44.7455 22.5494L54.0611 29.3625L47.1951 38.754C47.1173 38.8599 47.0625 38.981 47.0338 39.1099C46.6179 40.9708 46.9636 42.4166 48.0082 43.1819Z" fill="#F4F4F6"/>
</svg>
